<?xml version="1.0" encoding="UTF-8"?>
<svg id="Layer_2" data-name="Layer 2" xmlns="http://www.w3.org/2000/svg" viewBox="0 0 72.53 89.87">
  <defs>
    <style>
      .cls-1 {
        fill: #314c47;
      }

      .cls-2 {
        fill: #10312b;
      }
    </style>
  </defs>
  <g id="Logo1">
    <g id="Logo">
      <path class="cls-2" d="M12,63.04h60.53v14.83c0,6.62-5.38,12-12,12H12C5.38,89.87,0,84.49,0,77.87v-2.83C0,68.42,5.38,63.04,12,63.04Z"/>
      <path class="cls-2" d="M12,0h48.53C67.15,0,72.53,5.38,72.53,12v2.83c0,6.62-5.38,12-12,12H0v-14.83C0,5.38,5.38,0,12,0Z"/>
      <g>
        <path class="cls-1" d="M60.82,34.85h15.24v8.17c0,6.62-5.38,12-12,12h-15.24v-8.17c0-6.62,5.38-12,12-12Z" transform="translate(17.51 107.38) rotate(-90)"/>
        <path class="cls-2" d="M0,31.52h35.48c6.62,0,12,5.38,12,12v14.83H12C5.38,58.35,0,52.97,0,46.35v-14.83H0Z"/>
      </g>
    </g>
  </g>
</svg>